<svg xmlns="http://www.w3.org/2000/svg" viewBox="0 0 256 256" role="img" aria-label="Gestor de Equipamentos">
  <defs>
    <linearGradient id="bg" x1="0" y1="0" x2="1" y2="1">
      <stop offset="0%" stop-color="#18bad6"/>
      <stop offset="45%" stop-color="#0878b5"/>
      <stop offset="100%" stop-color="#07345f"/>
    </linearGradient>
    <linearGradient id="shine" x1="0" y1="0" x2="1" y2="1">
      <stop offset="0%" stop-color="#ffffff" stop-opacity=".14"/>
      <stop offset="100%" stop-color="#ffffff" stop-opacity="0"/>
    </linearGradient>
  </defs>

  <rect x="12" y="12" width="232" height="232" rx="50" fill="url(#bg)"/>
  <path d="M22 54 L140 14 H213 L22 183 Z" fill="url(#shine)"/>
  <path d="M35 222 C93 178 170 160 236 150 L236 222 Z" fill="#001f49" opacity=".17"/>

  <path d="M190 72 H128 C88 72 63 94 63 128 C63 169 91 190 130 190 H191 V145 H163"
        fill="none" stroke="#ffffff" stroke-width="30"
        stroke-linecap="round" stroke-linejoin="round"/>

  <path d="M93 109 l8 8 14 -17" fill="none" stroke="#ffffff" stroke-width="7"
        stroke-linecap="round" stroke-linejoin="round"/>
  <path d="M123 109 H155" fill="none" stroke="#ffffff" stroke-width="7" stroke-linecap="round"/>

  <path d="M93 136 l8 8 14 -17" fill="none" stroke="#ffffff" stroke-width="7"
        stroke-linecap="round" stroke-linejoin="round"/>
  <path d="M123 136 H149" fill="none" stroke="#ffffff" stroke-width="7" stroke-linecap="round"/>

  <path d="M93 163 l8 8 14 -17" fill="none" stroke="#ff8a16" stroke-width="8"
        stroke-linecap="round" stroke-linejoin="round"/>
  <path d="M123 163 H148" fill="none" stroke="#ffffff" stroke-width="7" stroke-linecap="round"/>
</svg>
